<?xml version="1.0" encoding="UTF-8" standalone="no"?>
<!-- Created with Inkscape (http://www.inkscape.org/) -->

<svg
   xmlns:dc="http://purl.org/dc/elements/1.1/"
   xmlns:cc="http://creativecommons.org/ns#"
   xmlns:rdf="http://www.w3.org/1999/02/22-rdf-syntax-ns#"
   xmlns:svg="http://www.w3.org/2000/svg"
   xmlns="http://www.w3.org/2000/svg"
   xmlns:sodipodi="http://sodipodi.sourceforge.net/DTD/sodipodi-0.dtd"
   xmlns:inkscape="http://www.inkscape.org/namespaces/inkscape"
   width="300mm"
   height="34.082981mm"
   viewBox="0 0 300 34.082982"
   version="1.1"
   id="svg5444"
   sodipodi:docname="seoulCMC.svg"
   inkscape:version="0.92.3 (2405546, 2018-03-11)">
  <defs
     id="defs5438" />
  <sodipodi:namedview
     id="base"
     pagecolor="#ffffff"
     bordercolor="#666666"
     borderopacity="1.0"
     inkscape:pageopacity="0.0"
     inkscape:pageshadow="2"
     inkscape:zoom="0.35"
     inkscape:cx="615.44014"
     inkscape:cy="124.21246"
     inkscape:document-units="mm"
     inkscape:current-layer="layer1"
     showgrid="false"
     inkscape:window-width="1299"
     inkscape:window-height="713"
     inkscape:window-x="67"
     inkscape:window-y="27"
     inkscape:window-maximized="1" />
  <metadata
     id="metadata5441">
    <rdf:RDF>
      <cc:Work
         rdf:about="">
        <dc:format>image/svg+xml</dc:format>
        <dc:type
           rdf:resource="http://purl.org/dc/dcmitype/StillImage" />
      </cc:Work>
    </rdf:RDF>
  </metadata>
  <g
     inkscape:label="Layer 1"
     inkscape:groupmode="layer"
     id="layer1"
     transform="translate(155.50093,-233.61417)">
    <g
       transform="matrix(1.0988661,0,0,-1.0988661,-313.7104,804.10501)"
       id="g5333">
      <g
         transform="translate(147.0728,517.897)"
         id="g3742">
        <path
           inkscape:connector-curvature="0"
           id="path3744"
           style="fill:#645854;fill-opacity:1;fill-rule:nonzero;stroke:none"
           d="M 0,0 H -2.747 V 1.114 H 4.014 V 0 H 1.268 V -7.725 H 0 Z" />
      </g>
      <g
         transform="translate(151.9746,519.0112)"
         id="g3746">
        <path
           inkscape:connector-curvature="0"
           id="path3748"
           style="fill:#645854;fill-opacity:1;fill-rule:nonzero;stroke:none"
           d="m 0,0 h 1.266 v -3.697 h 4.23 V 0 H 6.763 V -8.839 H 5.496 v 4.027 H 1.266 V -8.839 H 0 Z" />
      </g>
      <g
         transform="translate(160.6748,519.0112)"
         id="g3750">
        <path
           inkscape:connector-curvature="0"
           id="path3752"
           style="fill:#645854;fill-opacity:1;fill-rule:nonzero;stroke:none"
           d="M 0,0 H 4.953 V -1.114 H 1.266 V -3.697 H 4.621 V -4.812 H 1.266 V -7.725 H 4.953 V -8.839 H 0 Z" />
      </g>
      <g
         transform="translate(176.3911,517.5547)"
         id="g3762">
        <path
           inkscape:connector-curvature="0"
           id="path3764"
           style="fill:#645854;fill-opacity:1;fill-rule:nonzero;stroke:none"
           d="m 0,0 c -0.557,0.33 -1.179,0.494 -1.822,0.494 -2.041,0 -3.395,-1.469 -3.395,-3.457 0,-2.077 1.492,-3.458 3.329,-3.458 0.634,0 1.484,0.166 1.925,0.431 l 0.076,-1.229 c -0.67,-0.278 -1.493,-0.316 -2.013,-0.316 -2.8,0 -4.662,1.798 -4.662,4.61 0,2.723 1.979,4.533 4.674,4.533 0.685,0 1.355,-0.1 1.988,-0.379 z" />
      </g>
      <g
         transform="translate(181.5078,517.8218)"
         id="g3766">
        <path
           inkscape:connector-curvature="0"
           id="path3768"
           style="fill:#645854;fill-opacity:1;fill-rule:nonzero;stroke:none"
           d="M 0,0 -1.761,-4.383 H 1.76 Z m -0.622,1.189 h 1.33 L 4.445,-7.65 H 3.063 L 2.164,-5.421 H -2.167 L -3.065,-7.65 h -1.33 z" />
      </g>
      <g
         transform="translate(188.2944,517.897)"
         id="g3770">
        <path
           inkscape:connector-curvature="0"
           id="path3772"
           style="fill:#645854;fill-opacity:1;fill-rule:nonzero;stroke:none"
           d="M 0,0 H -2.75 V 1.114 H 4.015 V 0 H 1.267 V -7.725 H 0 Z" />
      </g>
      <g
         transform="translate(193.4487,519.0112)"
         id="g3774">
        <path
           inkscape:connector-curvature="0"
           id="path3776"
           style="fill:#645854;fill-opacity:1;fill-rule:nonzero;stroke:none"
           d="M 0,0 H 1.264 V -3.697 H 5.496 V 0 H 6.764 V -8.839 H 5.496 v 4.027 H 1.264 V -8.839 H 0 Z" />
      </g>
      <g
         transform="translate(205.8853,511.1338)"
         id="g3778">
        <path
           inkscape:connector-curvature="0"
           id="path3780"
           style="fill:#645854;fill-opacity:1;fill-rule:nonzero;stroke:none"
           d="M 0,0 C 2.039,0 2.911,1.697 2.911,3.458 2.911,5.256 1.951,6.928 0,6.915 -1.952,6.928 -2.914,5.256 -2.914,3.458 -2.914,1.697 -2.039,0 0,0 m 0,8.029 c 2.685,0 4.255,-1.949 4.255,-4.571 0,-2.685 -1.557,-4.572 -4.255,-4.572 -2.698,0 -4.256,1.887 -4.256,4.572 0,2.622 1.57,4.571 4.256,4.571" />
      </g>
      <g
         transform="translate(211.4824,519.0112)"
         id="g3782">
        <path
           inkscape:connector-curvature="0"
           id="path3784"
           style="fill:#645854;fill-opacity:1;fill-rule:nonzero;stroke:none"
           d="M 0,0 H 1.267 V -7.725 H 4.964 V -8.839 H 0 Z" />
      </g>
      <path
         inkscape:connector-curvature="0"
         id="path3786"
         style="fill:#645854;fill-opacity:1;fill-rule:nonzero;stroke:none"
         d="m 217.89,519.011 h 1.267 v -8.839 h -1.267 z" />
      <g
         transform="translate(227.0737,517.5547)"
         id="g3788">
        <path
           inkscape:connector-curvature="0"
           id="path3790"
           style="fill:#645854;fill-opacity:1;fill-rule:nonzero;stroke:none"
           d="m 0,0 c -0.558,0.33 -1.179,0.494 -1.827,0.494 -2.036,0 -3.393,-1.469 -3.393,-3.457 0,-2.077 1.495,-3.458 3.332,-3.458 0.633,0 1.481,0.166 1.925,0.431 l 0.075,-1.229 c -0.67,-0.278 -1.494,-0.316 -2.014,-0.316 -2.798,0 -4.66,1.798 -4.66,4.61 0,2.723 1.976,4.533 4.674,4.533 0.684,0 1.355,-0.1 1.989,-0.379 z" />
      </g>
      <g
         transform="translate(238.2168,513.8325)"
         id="g3792">
        <path
           inkscape:connector-curvature="0"
           id="path3794"
           style="fill:#645854;fill-opacity:1;fill-rule:nonzero;stroke:none"
           d="m 0,0 c 0,-2.483 -1.255,-3.813 -3.433,-3.813 -2.178,0 -3.429,1.33 -3.429,3.813 v 5.179 h 1.264 V 0.164 c 0,-1.697 0.532,-2.863 2.165,-2.863 1.634,0 2.165,1.166 2.165,2.863 V 5.179 H 0 Z" />
      </g>
      <g
         transform="translate(240.0283,519.0112)"
         id="g3796">
        <path
           inkscape:connector-curvature="0"
           id="path3798"
           style="fill:#645854;fill-opacity:1;fill-rule:nonzero;stroke:none"
           d="M 0,0 H 1.72 L 5.622,-7.117 H 5.647 V 0 H 6.913 V -8.839 H 5.292 l -4,7.269 H 1.265 V -8.839 H 0 Z" />
      </g>
      <path
         inkscape:connector-curvature="0"
         id="path3800"
         style="fill:#645854;fill-opacity:1;fill-rule:nonzero;stroke:none"
         d="m 248.74,519.011 h 1.268 v -8.839 h -1.268 z" />
      <g
         transform="translate(255.6792,510.1719)"
         id="g3802">
        <path
           inkscape:connector-curvature="0"
           id="path3804"
           style="fill:#645854;fill-opacity:1;fill-rule:nonzero;stroke:none"
           d="m 0,0 h -1.582 l -3.332,8.839 h 1.418 l 2.725,-7.725 h 0.025 l 2.797,7.725 h 1.332 z" />
      </g>
      <g
         transform="translate(259.8843,519.0112)"
         id="g3806">
        <path
           inkscape:connector-curvature="0"
           id="path3808"
           style="fill:#645854;fill-opacity:1;fill-rule:nonzero;stroke:none"
           d="M 0,0 H 4.953 V -1.114 H 1.268 V -3.697 H 4.621 V -4.812 H 1.268 V -7.725 H 4.953 V -8.839 H 0 Z" />
      </g>
      <g
         transform="translate(267.6089,515.2114)"
         id="g3810">
        <path
           inkscape:connector-curvature="0"
           id="path3812"
           style="fill:#645854;fill-opacity:1;fill-rule:nonzero;stroke:none"
           d="m 0,0 h 1.078 c 1.204,0 1.91,0.532 1.91,1.381 0,0.798 -0.607,1.305 -1.769,1.305 H 0 Z m -1.265,3.8 h 2.164 c 1.747,0 3.433,-0.279 3.433,-2.393 0,-1.076 -0.799,-1.838 -1.824,-2.014 V -0.632 C 2.9,-0.784 3.092,-0.974 3.37,-1.52 L 5.041,-5.04 H 3.598 L 2.24,-1.975 C 1.85,-1.113 1.434,-1.113 0.762,-1.113 H 0 V -5.04 h -1.265 z" />
      </g>
      <g
         transform="translate(277.7256,517.6812)"
         id="g3814">
        <path
           inkscape:connector-curvature="0"
           id="path3816"
           style="fill:#645854;fill-opacity:1;fill-rule:nonzero;stroke:none"
           d="m 0,0 c -0.643,0.253 -1,0.368 -1.656,0.368 -0.711,0 -1.549,-0.254 -1.549,-1.178 0,-1.697 3.803,-1.304 3.803,-4.217 0,-1.887 -1.455,-2.634 -3.231,-2.634 -0.621,0 -1.226,0.178 -1.81,0.368 l 0.127,1.177 c 0.429,-0.178 1.191,-0.431 1.836,-0.431 0.72,0 1.736,0.406 1.736,1.444 0,1.976 -3.8,1.43 -3.8,4.179 0,1.57 1.242,2.406 2.837,2.406 0.582,0 1.28,-0.101 1.887,-0.316 z" />
      </g>
      <path
         inkscape:connector-curvature="0"
         id="path3818"
         style="fill:#645854;fill-opacity:1;fill-rule:nonzero;stroke:none"
         d="m 279.604,519.011 h 1.266 v -8.839 h -1.266 z" />
      <g
         transform="translate(284.4409,517.897)"
         id="g3820">
        <path
           inkscape:connector-curvature="0"
           id="path3822"
           style="fill:#645854;fill-opacity:1;fill-rule:nonzero;stroke:none"
           d="M 0,0 H -2.749 V 1.114 H 4.013 V 0 H 1.266 V -7.725 H 0 Z" />
      </g>
      <g
         transform="translate(291.7471,513.8701)"
         id="g3824">
        <path
           inkscape:connector-curvature="0"
           id="path3826"
           style="fill:#645854;fill-opacity:1;fill-rule:nonzero;stroke:none"
           d="m 0,0 -3.457,5.141 h 1.483 L 0.658,1.178 3.229,5.141 H 4.711 L 1.268,0 V -3.698 H 0 Z" />
      </g>
      <g
         transform="translate(303.1455,511.1338)"
         id="g3828">
        <path
           inkscape:connector-curvature="0"
           id="path3830"
           style="fill:#645854;fill-opacity:1;fill-rule:nonzero;stroke:none"
           d="M 0,0 C 2.037,0 2.91,1.697 2.91,3.458 2.91,5.256 1.949,6.928 0,6.915 -1.951,6.928 -2.912,5.256 -2.912,3.458 -2.912,1.697 -2.039,0 0,0 m 0,8.029 c 2.684,0 4.252,-1.949 4.252,-4.571 0,-2.685 -1.557,-4.572 -4.252,-4.572 -2.697,0 -4.254,1.887 -4.254,4.572 0,2.622 1.568,4.571 4.254,4.571" />
      </g>
      <g
         transform="translate(308.6787,519.0112)"
         id="g3832">
        <path
           inkscape:connector-curvature="0"
           id="path3834"
           style="fill:#645854;fill-opacity:1;fill-rule:nonzero;stroke:none"
           d="M 0,0 H 4.699 V -1.114 H 1.266 V -3.697 H 4.547 V -4.812 H 1.266 V -8.839 H 0 Z" />
      </g>
      <g
         transform="translate(317.7861,519.0112)"
         id="g3836">
        <path
           inkscape:connector-curvature="0"
           id="path3838"
           style="fill:#645854;fill-opacity:1;fill-rule:nonzero;stroke:none"
           d="M 0,0 H 1.266 V -3.888 L 5.039,0 H 6.723 L 2.57,-4.179 7.051,-8.839 h -1.85 l -3.935,4.33 v -4.33 H 0 Z" />
      </g>
      <g
         transform="translate(328.7646,511.1338)"
         id="g3840">
        <path
           inkscape:connector-curvature="0"
           id="path3842"
           style="fill:#645854;fill-opacity:1;fill-rule:nonzero;stroke:none"
           d="M 0,0 C 2.037,0 2.91,1.697 2.91,3.458 2.91,5.256 1.949,6.928 0,6.915 -1.951,6.928 -2.912,5.256 -2.912,3.458 -2.912,1.697 -2.039,0 0,0 m 0,8.029 c 2.684,0 4.254,-1.949 4.254,-4.571 0,-2.685 -1.559,-4.572 -4.254,-4.572 -2.697,0 -4.256,1.887 -4.256,4.572 0,2.622 1.57,4.571 4.256,4.571" />
      </g>
      <g
         transform="translate(335.5654,515.2114)"
         id="g3844">
        <path
           inkscape:connector-curvature="0"
           id="path3846"
           style="fill:#645854;fill-opacity:1;fill-rule:nonzero;stroke:none"
           d="m 0,0 h 1.074 c 1.205,0 1.914,0.532 1.914,1.381 0,0.798 -0.607,1.305 -1.773,1.305 H 0 Z M -1.268,3.8 H 0.898 C 2.646,3.8 4.33,3.521 4.33,1.407 4.33,0.331 3.533,-0.431 2.508,-0.607 V -0.632 C 2.9,-0.784 3.09,-0.974 3.367,-1.52 L 5.039,-5.04 H 3.596 L 2.24,-1.975 C 1.848,-1.113 1.432,-1.113 0.758,-1.113 H 0 V -5.04 h -1.268 z" />
      </g>
      <g
         transform="translate(341.7314,519.0112)"
         id="g3848">
        <path
           inkscape:connector-curvature="0"
           id="path3850"
           style="fill:#645854;fill-opacity:1;fill-rule:nonzero;stroke:none"
           d="M 0,0 H 4.951 V -1.114 H 1.266 V -3.697 H 4.623 V -4.812 H 1.266 V -7.725 H 4.951 V -8.839 H 0 Z" />
      </g>
      <g
         transform="translate(351.9404,517.8218)"
         id="g3852">
        <path
           inkscape:connector-curvature="0"
           id="path3854"
           style="fill:#645854;fill-opacity:1;fill-rule:nonzero;stroke:none"
           d="m 0,0 -1.762,-4.383 h 3.52 z M -0.621,1.189 H 0.707 L 4.445,-7.65 H 3.064 l -0.9,2.229 H -2.168 L -3.066,-7.65 h -1.329 z" />
      </g>
      <g
         transform="translate(151.7412,501.2349)"
         id="g3856">
        <path
           inkscape:connector-curvature="0"
           id="path3858"
           style="fill:#645854;fill-opacity:1;fill-rule:nonzero;stroke:none"
           d="m 0,0 c -1.104,0.432 -1.709,0.627 -2.833,0.627 -1.21,0 -2.641,-0.433 -2.641,-2.012 0,-2.899 6.492,-2.228 6.492,-7.204 0,-3.223 -2.488,-4.499 -5.518,-4.499 -1.059,0 -2.097,0.303 -3.092,0.628 l 0.216,2.011 c 0.735,-0.303 2.034,-0.736 3.137,-0.736 1.234,0 2.963,0.693 2.963,2.466 0,3.375 -6.49,2.445 -6.49,7.139 0,2.683 2.12,4.11 4.846,4.11 0.995,0 2.186,-0.172 3.223,-0.54 z" />
      </g>
      <g
         transform="translate(155.1606,503.5063)"
         id="g3860">
        <path
           inkscape:connector-curvature="0"
           id="path3862"
           style="fill:#645854;fill-opacity:1;fill-rule:nonzero;stroke:none"
           d="M 0,0 H 8.457 V -1.904 H 2.164 V -6.318 H 7.896 V -8.22 H 2.164 v -4.977 h 6.293 v -1.904 H 0 Z" />
      </g>
      <g
         transform="translate(172.9199,490.0503)"
         id="g3864">
        <path
           inkscape:connector-curvature="0"
           id="path3866"
           style="fill:#645854;fill-opacity:1;fill-rule:nonzero;stroke:none"
           d="M 0,0 C 3.484,0 4.976,2.898 4.976,5.906 4.976,8.978 3.333,11.833 0,11.812 -3.331,11.833 -4.974,8.978 -4.974,5.906 -4.974,2.898 -3.482,0 0,0 m 0,13.715 c 4.586,0 7.269,-3.332 7.269,-7.809 0,-4.586 -2.661,-7.809 -7.269,-7.809 -4.608,0 -7.269,3.223 -7.269,7.809 0,4.477 2.683,7.809 7.269,7.809" />
      </g>
      <g
         transform="translate(194.3584,494.6587)"
         id="g3868">
        <path
           inkscape:connector-curvature="0"
           id="path3870"
           style="fill:#645854;fill-opacity:1;fill-rule:nonzero;stroke:none"
           d="m 0,0 c 0,-4.24 -2.142,-6.512 -5.862,-6.512 -3.722,0 -5.864,2.272 -5.864,6.512 v 8.848 h 2.164 V 0.28 c 0,-2.899 0.909,-4.888 3.7,-4.888 2.791,0 3.699,1.989 3.699,4.888 V 8.848 H 0 Z" />
      </g>
      <g
         transform="translate(197.5596,503.5063)"
         id="g3872">
        <path
           inkscape:connector-curvature="0"
           id="path3874"
           style="fill:#645854;fill-opacity:1;fill-rule:nonzero;stroke:none"
           d="m 0,0 h 2.165 v -13.197 h 6.316 v -1.904 H 0 Z" />
      </g>
      <g
         transform="translate(219.9717,501.2349)"
         id="g3876">
        <path
           inkscape:connector-curvature="0"
           id="path3878"
           style="fill:#645854;fill-opacity:1;fill-rule:nonzero;stroke:none"
           d="m 0,0 c -1.103,0.432 -1.709,0.627 -2.835,0.627 -1.209,0 -2.637,-0.433 -2.637,-2.012 0,-2.899 6.489,-2.228 6.489,-7.204 0,-3.223 -2.488,-4.499 -5.516,-4.499 -1.061,0 -2.099,0.303 -3.094,0.628 l 0.217,2.011 c 0.736,-0.303 2.032,-0.736 3.136,-0.736 1.234,0 2.964,0.693 2.964,2.466 0,3.375 -6.492,2.445 -6.492,7.139 0,2.683 2.122,4.11 4.849,4.11 0.996,0 2.184,-0.172 3.221,-0.54 z" />
      </g>
      <g
         transform="translate(226.2881,501.6025)"
         id="g3880">
        <path
           inkscape:connector-curvature="0"
           id="path3882"
           style="fill:#645854;fill-opacity:1;fill-rule:nonzero;stroke:none"
           d="M 0,0 H -4.694 V 1.904 H 6.857 V 0 H 2.163 V -13.197 H 0 Z" />
      </g>
      <path
         inkscape:connector-curvature="0"
         id="path3884"
         style="fill:#645854;fill-opacity:1;fill-rule:nonzero;stroke:none"
         d="m 234.533,490.829 h 2.421 v -2.423 h -2.421 z" />
      <g
         transform="translate(243.2456,503.5063)"
         id="g3886">
        <path
           inkscape:connector-curvature="0"
           id="path3888"
           style="fill:#645854;fill-opacity:1;fill-rule:nonzero;stroke:none"
           d="M 0,0 H 3.57 L 8.309,-12.548 12.961,0 h 3.568 V -15.101 H 14.366 V -2.034 H 14.322 L 9.325,-15.101 H 7.205 L 2.208,-2.034 H 2.166 V -15.101 H 0 Z" />
      </g>
      <g
         transform="translate(268.8374,501.4722)"
         id="g3890">
        <path
           inkscape:connector-curvature="0"
           id="path3892"
           style="fill:#645854;fill-opacity:1;fill-rule:nonzero;stroke:none"
           d="m 0,0 -3.005,-7.484 h 6.013 z m -1.059,2.034 h 2.272 l 6.382,-15.1 H 5.236 l -1.537,3.808 h -7.398 l -1.535,-3.808 h -2.271 z" />
      </g>
      <g
         transform="translate(280.001,497.0161)"
         id="g3894">
        <path
           inkscape:connector-curvature="0"
           id="path3896"
           style="fill:#645854;fill-opacity:1;fill-rule:nonzero;stroke:none"
           d="m 0,0 h 1.84 c 2.053,0 3.266,0.909 3.266,2.358 0,1.363 -1.04,2.228 -3.028,2.228 H 0 Z m -2.164,6.49 h 3.7 c 2.986,0 5.861,-0.477 5.861,-4.088 0,-1.839 -1.361,-3.137 -3.114,-3.441 v -0.043 c 0.67,-0.259 0.994,-0.584 1.471,-1.514 L 8.61,-8.61 H 6.143 l -2.315,5.235 c -0.67,1.472 -1.384,1.472 -2.531,1.472 H 0 V -8.61 h -2.164 z" />
      </g>
      <g
         transform="translate(294.7534,494.7231)"
         id="g3898">
        <path
           inkscape:connector-curvature="0"
           id="path3900"
           style="fill:#645854;fill-opacity:1;fill-rule:nonzero;stroke:none"
           d="m 0,0 -5.907,8.783 h 2.533 l 4.5,-6.772 4.391,6.772 H 8.046 L 2.164,0 V -6.317 H 0 Z" />
      </g>
      <path
         inkscape:connector-curvature="0"
         id="path3902"
         style="fill:#645854;fill-opacity:1;fill-rule:nonzero;stroke:none"
         d="m 304.446,503.506 h 1.902 v -5.3 h -1.902 z" />
      <g
         transform="translate(316.5381,501.2349)"
         id="g3904">
        <path
           inkscape:connector-curvature="0"
           id="path3906"
           style="fill:#645854;fill-opacity:1;fill-rule:nonzero;stroke:none"
           d="m 0,0 c -1.104,0.432 -1.709,0.627 -2.834,0.627 -1.211,0 -2.639,-0.433 -2.639,-2.012 0,-2.899 6.491,-2.228 6.491,-7.204 0,-3.223 -2.489,-4.499 -5.518,-4.499 -1.061,0 -2.1,0.303 -3.092,0.628 l 0.215,2.011 c 0.734,-0.303 2.033,-0.736 3.137,-0.736 1.232,0 2.963,0.693 2.963,2.466 0,3.375 -6.491,2.445 -6.491,7.139 0,2.683 2.122,4.11 4.846,4.11 0.996,0 2.188,-0.172 3.223,-0.54 z" />
      </g>
      <g
         transform="translate(325.3213,503.5063)"
         id="g3908">
        <path
           inkscape:connector-curvature="0"
           id="path3910"
           style="fill:#645854;fill-opacity:1;fill-rule:nonzero;stroke:none"
           d="M 0,0 H 2.16 V -6.318 H 9.389 V 0 h 2.162 V -15.101 H 9.389 V -8.22 H 2.16 v -6.881 H 0 Z" />
      </g>
      <g
         transform="translate(346.6729,490.0503)"
         id="g3912">
        <path
           inkscape:connector-curvature="0"
           id="path3914"
           style="fill:#645854;fill-opacity:1;fill-rule:nonzero;stroke:none"
           d="M 0,0 C 3.482,0 4.975,2.898 4.975,5.906 4.975,8.978 3.332,11.833 0,11.812 -3.332,11.833 -4.977,8.978 -4.977,5.906 -4.977,2.898 -3.482,0 0,0 m 0,13.715 c 4.586,0 7.268,-3.332 7.268,-7.809 0,-4.586 -2.661,-7.809 -7.268,-7.809 -4.609,0 -7.27,3.223 -7.27,7.809 0,4.477 2.682,7.809 7.27,7.809" />
      </g>
      <g
         transform="translate(363.2197,501.2349)"
         id="g3916">
        <path
           inkscape:connector-curvature="0"
           id="path3918"
           style="fill:#645854;fill-opacity:1;fill-rule:nonzero;stroke:none"
           d="m 0,0 c -1.102,0.432 -1.709,0.627 -2.832,0.627 -1.211,0 -2.639,-0.433 -2.639,-2.012 0,-2.899 6.489,-2.228 6.489,-7.204 0,-3.223 -2.489,-4.499 -5.516,-4.499 -1.061,0 -2.098,0.303 -3.094,0.628 l 0.215,2.011 c 0.738,-0.303 2.035,-0.736 3.141,-0.736 1.23,0 2.959,0.693 2.959,2.466 0,3.375 -6.487,2.445 -6.487,7.139 0,2.683 2.119,4.11 4.846,4.11 0.994,0 2.184,-0.172 3.223,-0.54 z" />
      </g>
      <g
         transform="translate(368.5635,496.3447)"
         id="g3920">
        <path
           inkscape:connector-curvature="0"
           id="path3922"
           style="fill:#645854;fill-opacity:1;fill-rule:nonzero;stroke:none"
           d="M 0,0 H 2.141 C 3.484,0 5.17,0.671 5.17,2.662 5.17,4.565 3.18,5.258 1.84,5.258 H 0 Z m -2.162,7.162 h 3.959 c 3.094,0 5.668,-1.082 5.668,-4.522 0,-3.353 -2.617,-4.543 -5.344,-4.543 H 0 v -6.036 h -2.162 z" />
      </g>
      <path
         inkscape:connector-curvature="0"
         id="path3924"
         style="fill:#645854;fill-opacity:1;fill-rule:nonzero;stroke:none"
         d="m 377.911,503.506 h 2.162 v -15.101 h -2.162 z" />
      <g
         transform="translate(386.2822,501.6025)"
         id="g3926">
        <path
           inkscape:connector-curvature="0"
           id="path3928"
           style="fill:#645854;fill-opacity:1;fill-rule:nonzero;stroke:none"
           d="M 0,0 H -4.695 V 1.904 H 6.857 V 0 H 2.164 V -13.197 H 0 Z" />
      </g>
      <g
         transform="translate(399.3955,501.4722)"
         id="g3930">
        <path
           inkscape:connector-curvature="0"
           id="path3932"
           style="fill:#645854;fill-opacity:1;fill-rule:nonzero;stroke:none"
           d="m 0,0 -3.006,-7.484 h 6.014 z m -1.061,2.034 h 2.272 l 6.383,-15.1 H 5.236 l -1.535,3.808 h -7.4 l -1.535,-3.808 h -2.272 z" />
      </g>
      <g
         transform="translate(408.5049,503.5063)"
         id="g3934">
        <path
           inkscape:connector-curvature="0"
           id="path3936"
           style="fill:#645854;fill-opacity:1;fill-rule:nonzero;stroke:none"
           d="m 0,0 h 2.162 v -13.197 h 6.317 v -1.904 H 0 Z" />
      </g>
    </g>
  </g>
</svg>
